# xmcd
#
# Track frame offsets:
#	150
#	5135
#	20145
#	34272
#	46088
#	62283
#	78261
#	91323
#	110017
#	123488
#	137185
#	150691
#	166053
#	180806
#	196900
#	213655
#	227317
#	243982
#	260015
#	278815
#	298223
#	314630
#
# Disc length: 4439 seconds
#
# Revision: 0
# Processed by: cddbd v1.5.2PL0 Copyright (c) Steve Scherf et al.
# Submitted via: EasyCDDAExtractor 8.2.4.1
#
DISCID=33115516
DTITLE=Banda G10 - Banda G10 - Ao Vivo
DYEAR=2008
DGENRE=
TTITLE0=Abertura
TTITLE1=Novo Som
TTITLE2=Agarra, Agarra
TTITLE3=Agita Hei
TTITLE4=Fogo da Paixão
TTITLE5=Maluco Doido
TTITLE6=Tum Tum Tum
TTITLE7=Caminhos do Amor
TTITLE8=Trem Bão
TTITLE9=Vai Sentir Saudade
TTITLE10=Preciso Te Encontrar
TTITLE11=Amor da Minha Vida
TTITLE12=Assim Tá Bão
TTITLE13=Põe na Cabeça
TTITLE14=Pout-Porri Dança Louca - Sem Querer
TTITLE15=Vem Rebola
TTITLE16=Pout-Porri Amor de Mais - Fazer Ruaça
TTITLE17=Agora Tanto Faz
TTITLE18=Pout-Porri Ainda Ontem Chorei de Saudade - Vestido de Seda
TTITLE19=Hábito
TTITLE20=Verdadeiro Amor
TTITLE21=Pé na Estrada
EXTD=
EXTT0=
EXTT1=
EXTT2=
EXTT3=
EXTT4=
EXTT5=
EXTT6=
EXTT7=
EXTT8=
EXTT9=
EXTT10=
EXTT11=
EXTT12=
EXTT13=
EXTT14=
EXTT15=
EXTT16=
EXTT17=
EXTT18=
EXTT19=
EXTT20=
EXTT21=
PLAYORDER=
